<mxfile host="65bd71144e">
    <diagram id="_6nX0FnuJvQw8fhr9j9E" name="Page-1">
        <mxGraphModel dx="642" dy="347" grid="1" gridSize="10" guides="1" tooltips="1" connect="1" arrows="1" fold="1" page="1" pageScale="1" pageWidth="850" pageHeight="1100" math="0" shadow="0">
            <root>
                <mxCell id="0"/>
                <mxCell id="1" parent="0"/>
                <mxCell id="2" value="Matt Walters" style="rounded=1;whiteSpace=wrap;html=1;" parent="1" vertex="1">
                    <mxGeometry x="40" y="20" width="590" height="40" as="geometry"/>
                </mxCell>
                <mxCell id="4" value="" style="shape=partialRectangle;whiteSpace=wrap;html=1;left=0;right=0;fillColor=none;" parent="1" vertex="1">
                    <mxGeometry x="590" y="35" width="30" height="10" as="geometry"/>
                </mxCell>
                <mxCell id="9" value="Mission statement" style="rounded=1;whiteSpace=wrap;html=1;" parent="1" vertex="1">
                    <mxGeometry x="40" y="70" width="590" height="240" as="geometry"/>
                </mxCell>
                <mxCell id="7" value="About&lt;br&gt;&lt;br&gt;Projects&lt;br&gt;&lt;br&gt;Contact" style="rounded=1;whiteSpace=wrap;html=1;" parent="1" vertex="1">
                    <mxGeometry x="540" y="70" width="90" height="90" as="geometry"/>
                </mxCell>
                <mxCell id="10" value="Large, hi-res photo that scrolls" style="rounded=0;whiteSpace=wrap;html=1;align=center;" parent="1" vertex="1">
                    <mxGeometry x="60" y="90" width="480" height="50" as="geometry"/>
                </mxCell>
                <mxCell id="11" value="Go to projects" style="rounded=1;whiteSpace=wrap;html=1;" parent="1" vertex="1">
                    <mxGeometry x="40" y="400" width="590" height="100" as="geometry"/>
                </mxCell>
                <mxCell id="12" value="About me.&lt;span style=&quot;white-space: pre&quot;&gt;&#9;&lt;/span&gt;&lt;span style=&quot;white-space: pre&quot;&gt;&#9;&lt;/span&gt;&lt;span style=&quot;white-space: pre&quot;&gt;&#9;&lt;/span&gt; Headshot&lt;br&gt;&lt;br&gt;Languages I know&lt;br&gt;images?" style="rounded=1;whiteSpace=wrap;html=1;" parent="1" vertex="1">
                    <mxGeometry x="40" y="260" width="590" height="140" as="geometry"/>
                </mxCell>
                <mxCell id="13" value="Contact me&lt;br&gt;(linkedin, github, email)" style="rounded=1;whiteSpace=wrap;html=1;" parent="1" vertex="1">
                    <mxGeometry x="40" y="500" width="590" height="100" as="geometry"/>
                </mxCell>
                <mxCell id="15" value="&lt;h1&gt;Project grid&lt;/h1&gt;" style="rounded=1;whiteSpace=wrap;html=1;labelPosition=center;verticalLabelPosition=top;align=center;verticalAlign=bottom;" parent="1" vertex="1">
                    <mxGeometry x="40" y="700" width="590" height="280" as="geometry"/>
                </mxCell>
                <mxCell id="16" value="Proj 1 screenshot&lt;br&gt;description below&lt;br&gt;tech stack/github logo" style="rounded=1;whiteSpace=wrap;html=1;" parent="1" vertex="1">
                    <mxGeometry x="80" y="740" width="130" height="60" as="geometry"/>
                </mxCell>
                <mxCell id="17" value="Proj 2 screenshot&lt;br&gt;description below&lt;br&gt;tech stack/github logo" style="rounded=1;whiteSpace=wrap;html=1;" parent="1" vertex="1">
                    <mxGeometry x="275" y="740" width="125" height="60" as="geometry"/>
                </mxCell>
                <mxCell id="18" value="Proj 3 screenshot&lt;br&gt;description below&lt;br&gt;tech stack/github logo" style="rounded=1;whiteSpace=wrap;html=1;" parent="1" vertex="1">
                    <mxGeometry x="470" y="740" width="130" height="60" as="geometry"/>
                </mxCell>
                <mxCell id="19" value="Proj 4 screenshot&lt;br&gt;description below&lt;br&gt;tech stack/github logo" style="rounded=1;whiteSpace=wrap;html=1;" parent="1" vertex="1">
                    <mxGeometry x="80" y="860" width="130" height="60" as="geometry"/>
                </mxCell>
                <mxCell id="20" value="upcoming" style="rounded=1;whiteSpace=wrap;html=1;" parent="1" vertex="1">
                    <mxGeometry x="275" y="860" width="125" height="60" as="geometry"/>
                </mxCell>
                <mxCell id="21" value="upcoming" style="rounded=1;whiteSpace=wrap;html=1;" parent="1" vertex="1">
                    <mxGeometry x="470" y="860" width="130" height="60" as="geometry"/>
                </mxCell>
            </root>
        </mxGraphModel>
    </diagram>
</mxfile>